<?xml version="1.0" encoding="UTF-8" standalone="no"?>
<!DOCTYPE svg PUBLIC "-//W3C//DTD SVG 20010904//EN"
              "http://www.w3.org/TR/2001/REC-SVG-20010904/DTD/svg10.dtd">

<svg xmlns="http://www.w3.org/2000/svg"
     width="1.98611in" height="2.59722in"
     viewBox="0 0 143 187">
  <path id="Sélection"
        fill="silver" stroke="black" stroke-width="1"
        d="M 75.88,15.00
           C 75.85,17.42 73.72,19.41 74.91,21.70
             76.35,24.48 80.95,23.92 84.58,28.13
             88.23,32.35 87.06,36.50 90.31,39.44
             92.63,41.55 98.39,42.25 97.97,46.06
             97.70,48.57 94.55,50.47 92.70,53.09
             90.74,55.86 89.95,59.75 89.00,63.00
             89.00,63.00 99.00,63.00 99.00,63.00
             100.88,59.70 102.17,59.45 104.37,56.79
             107.60,52.91 108.26,49.65 114.00,47.70
             117.33,46.57 120.67,47.31 124.00,46.86
             128.34,46.27 130.73,43.53 133.61,45.08
             138.77,47.85 140.30,61.69 139.91,67.00
             138.54,85.85 122.79,102.47 118.16,120.00
             115.84,128.79 119.74,128.51 119.99,139.00
             120.20,148.32 117.92,155.30 110.96,161.83
             108.30,164.32 99.42,169.47 98.82,172.18
             98.27,174.69 102.73,181.18 104.00,184.00
             100.43,183.88 98.12,183.92 95.70,180.85
             93.52,178.11 93.44,173.90 89.87,172.88
             89.87,172.88 75.00,174.00 75.00,174.00
             75.00,174.00 55.02,172.43 55.02,172.43
             49.01,172.64 49.53,178.28 46.35,181.69
             44.15,184.05 41.96,183.90 39.00,184.00
             40.60,179.18 43.89,175.98 43.55,172.00
             42.76,162.52 29.00,155.02 22.00,150.25
             9.59,141.80 3.37,134.24 2.75,119.00
             1.86,97.55 19.87,79.43 16.70,58.00
             15.68,51.09 12.54,47.66 9.00,42.00
             16.64,44.17 16.29,48.13 22.00,46.00
             30.13,58.63 28.50,70.31 24.00,84.00
             21.87,90.47 16.27,103.74 20.74,109.85
             23.87,114.14 28.84,113.10 33.00,111.20
             41.40,107.37 47.14,100.44 50.55,92.00
             54.36,82.58 55.50,68.79 52.56,59.00
             49.62,49.19 43.83,49.41 44.82,45.17
             45.57,42.01 50.26,41.60 52.57,39.44
             55.67,36.56 54.98,32.10 58.42,28.13
             61.75,24.27 65.75,24.47 67.33,22.44
             69.80,19.89 67.17,17.72 67.33,15.00
             67.08,13.21 70.13,6.03 71.00,4.00
             72.67,6.08 75.91,12.41 75.88,15.00 Z
           M 132.00,71.00
           C 132.07,63.64 129.41,53.22 120.00,53.40
             116.45,53.47 112.04,56.06 112.23,60.02
             112.31,61.86 113.97,64.37 113.58,67.00
             112.86,71.84 107.64,75.01 103.00,72.82
             101.49,72.11 100.30,71.02 99.00,70.00
             94.22,73.18 93.57,72.94 88.00,72.00
             89.28,87.75 91.60,97.32 103.01,109.00
             106.43,112.49 108.53,114.89 113.00,117.00
             117.52,101.16 131.82,88.15 132.00,71.00 Z" />
</svg>
