<svg width="256" height="257" viewBox="0 0 256 257" xmlns="http://www.w3.org/2000/svg"><title>chrome</title><defs><linearGradient x1="49.998%" y1=".706%" x2="49.998%" y2="96.99%" id="a"><stop stop-color="#86BBE5" offset="0%"/><stop stop-color="#1072BA" offset="100%"/></linearGradient></defs><g fill="none" fill-rule="evenodd"><path d="M127.789.035s75.32-3.38 115.253 72.328H121.38s-22.96-.74-42.573 27.114c-5.634 11.691-11.69 23.734-4.894 47.468-9.79-16.586-51.975-90.04-51.975-90.04S51.693 3.028 127.788.035h.001z" fill="#EF3F36" fill-rule="nonzero"/><path d="M239.133 192.229s-34.756 66.94-120.253 63.63c10.564-18.276 60.848-105.358 60.848-105.358s12.149-19.508-2.183-50.425c-7.29-10.74-14.72-21.973-38.664-27.96 19.262-.175 103.95 0 103.95 0s31.726 52.715-3.698 120.113z" fill="#FCD900" fill-rule="nonzero"/><path d="M16.973 192.757s-40.601-63.56 5.035-135.958c10.529 18.276 60.813 105.358 60.813 105.358s10.846 20.283 44.756 23.31c12.924-.95 26.375-1.76 43.56-19.472C161.663 182.757 119.16 256 119.16 256s-61.552 1.127-102.188-63.243h.001z" fill="#61BC5B" fill-rule="nonzero"/><path d="M118.845 256.493l17.113-71.412s18.804-1.48 34.58-18.769c-9.79 17.22-51.693 90.181-51.693 90.181z" fill="#5AB055" fill-rule="nonzero"/><path d="M70.462 129.056c0-31.48 25.53-57.01 57.01-57.01 31.48 0 57.01 25.53 57.01 57.01 0 31.481-25.53 57.01-57.01 57.01-31.48-.035-57.01-25.529-57.01-57.01z" fill="#FFF" fill-rule="nonzero"/><path d="M80.004 129.056c0-26.198 21.234-47.467 47.468-47.467 26.198 0 47.467 21.234 47.467 47.467 0 26.199-21.233 47.468-47.467 47.468-26.199 0-47.468-21.269-47.468-47.468z" fill="url(#a)" fill-rule="nonzero"/><path d="M242.795 72.152l-70.462 20.67s-10.634-15.6-33.487-20.67c19.825-.106 103.949 0 103.949 0z" fill="#EACA05" fill-rule="nonzero"/><path d="M72.54 144.339c-9.896-17.149-50.602-87.434-50.602-87.434l52.186 51.622s-5.353 11.022-3.345 26.797l1.76 9.015h.001z" fill="#DF3A32" fill-rule="nonzero"/><path d="M195.517 216.6c3.547 0 6.422 2.866 6.422 6.4v27.45c0 3.534-2.875 6.399-6.422 6.399-3.547 0-6.422-2.865-6.422-6.399V223c0-3.534 2.875-6.399 6.422-6.399z" fill="#A4C639" fill-rule="nonzero"/><path d="M180.855 183.598c-.021.243-.04.488-.04.736v41.59c0 4.472 3.554 8.076 7.965 8.076h42.448c4.411 0 7.964-3.604 7.964-8.076v-41.59c0-.248-.009-.494-.03-.736h-58.307z" fill="#A4C639" fill-rule="nonzero"/><path d="M224.491 216.6c3.547 0 6.423 2.866 6.423 6.4v27.45c0 3.534-2.876 6.399-6.423 6.399-3.546 0-6.422-2.865-6.422-6.399V223c0-3.534 2.876-6.399 6.422-6.399zm-53.995-29.3c3.547 0 6.422 2.864 6.422 6.398v27.45c0 3.535-2.875 6.4-6.422 6.4-3.547 0-6.422-2.865-6.422-6.399v-27.45c0-3.534 2.875-6.4 6.422-6.4zm79.016 0c3.547 0 6.422 2.864 6.422 6.398v27.45c0 3.535-2.875 6.4-6.422 6.4-3.547 0-6.422-2.865-6.422-6.399v-27.45c0-3.534 2.875-6.4 6.422-6.4zm-68.47-6.434c.18-12.775 11.37-23.249 25.734-24.629h6.455c14.365 1.38 25.555 11.855 25.734 24.63h-57.922z" fill="#A4C639" fill-rule="nonzero"/><path d="M183.276 155.004l6.775 11.692m46.681-11.692l-6.775 11.692" stroke="#A4C639" stroke-width="1.35" stroke-linecap="round" stroke-linejoin="round"/><path d="M201.376 169.418c.006 1.786-1.478 3.237-3.313 3.242-1.835.005-3.326-1.438-3.332-3.224v-.018c-.005-1.786 1.478-3.238 3.314-3.242 1.834-.005 3.326 1.437 3.331 3.224v.018zm24.802 0c.006 1.786-1.477 3.237-3.313 3.242-1.834.005-3.326-1.438-3.332-3.224v-.018c-.005-1.786 1.479-3.238 3.314-3.242 1.834-.005 3.326 1.437 3.331 3.224v.018z" fill="#FFF" fill-rule="nonzero"/></g></svg>