<svg xmlns="http://www.w3.org/2000/svg" viewBox="0 0 1024 1024"><path d="M691.29 698.7l-66.58-62.17H332.33l66.58 62.17zM398.91 480.75l-66.58 62.17h292.38l66.58-62.17zM691.27 387.12l-66.56-62.19H332.35l66.56 62.19zM301.56 448.66l-43.98-43.99L94.49 567.73c-5.86 5.85-9.09 13.68-9.08 21.99 0 8.31 3.22 16.12 9.08 21.97l163.08 163.08 43.98-43.97-141.08-141.07 141.09-141.07zM929.13 411.95L766.1 248.85l-43.97 43.99 141.01 141.09-141 141.09 43.97 43.97 163.02-163.04c5.88-5.9 9.12-13.72 9.12-22.03-.03-8.32-3.25-16.11-9.12-21.97z"/></svg>