<?xml version="1.0" encoding="UTF-8"?>
<svg width="19px" height="32px" viewBox="0 0 19 32" version="1.1" xmlns="http://www.w3.org/2000/svg" xmlns:xlink="http://www.w3.org/1999/xlink">
    <!-- Generator: Sketch 46.2 (44496) - http://www.bohemiancoding.com/sketch -->
    <title>Group</title>
    <desc>Created with Sketch.</desc>
    <defs></defs>
    <g id="Page-1" stroke="none" stroke-width="1" fill="none" fill-rule="evenodd" fill-opacity="0.25">
        <g id="logo" transform="translate(-40.000000, -69.000000)" fill-rule="nonzero" fill="#000000">
            <g id="Group" transform="translate(40.000000, 69.000000)">
                <path d="M4.38592929,31.8531765 L8.05216162,31.8531765 C8.91963636,31.8531765 9.99783838,31.2557176 10.4448182,30.5234824 L13.532798,25.4832941 C13.8982121,24.7440941 13.8851616,23.6690824 13.4685051,22.9876706 L11.6448889,20.0267294 L4.38592929,31.8529882 L4.38592929,31.8531765 Z" id="Shape"></path>
                <path d="M8.32641414,17.2993882 L0.174070707,30.6686118 C-0.141252525,31.3293176 0.186353535,31.8529882 0.99510101,31.8529882 L4.38592929,31.8529882 L11.6448889,20.0267294 L8.32679798,14.6401882 C8.77435354,15.3699765 8.77435354,16.5665882 8.32622222,17.2993882" id="Shape"></path>
                <path d="M0.99510101,0.0833882353 C0.123787879,0.0833882353 -0.221666667,0.683294118 0.226272727,1.41289412 L13.4685051,22.9872941 C13.8851616,23.6692706 13.8976364,24.7435294 13.532798,25.4829176 L16.7518586,20.2275765 L4.3880404,0.0833882353 L0.99510101,0.0833882353 Z" id="Shape"></path>
                <path d="M4.3880404,0.0833882353 L16.7526263,20.2279529 L18.5455354,17.2999529 C18.9934747,16.5665882 18.9934747,15.3699765 18.5455354,14.6401882 L10.4448182,1.41289412 C9.99764646,0.683294118 8.91963636,0.0833882353 8.05216162,0.0833882353 L4.3880404,0.0833882353 Z" id="Shape"></path>
            </g>
        </g>
    </g>
</svg>