<svg width="1653" height="1633" viewBox="0 0 1653 1633" xmlns="http://www.w3.org/2000/svg"><title>Color</title><defs><linearGradient x1="81.016%" y1="11.977%" x2="45.959%" y2="83.173%" id="a"><stop stop-color="#FFC152" offset="0%"/><stop stop-color="#EF5E68" offset="100%"/></linearGradient></defs><g transform="translate(230 312)" fill="none" fill-rule="evenodd"><ellipse fill="#FFF" cx="682.5" cy="502.088" rx="511.5" ry="502.088"/><path d="M990.097 494.547c-2.24 4.397-4.46 8.732-6.66 13.004-2.4 4.805-5.602 10.412-9.603 16.819-4.001 6.407-7.903 12.113-11.704 17.118-3.801 5.006-7.103 8.61-9.904 10.812-2.8 2.203-4.201 1.502-4.201-2.102 0-4.405 1.2-11.412 3.601-21.023l8.403-31.234c2-4.405 3.101-7.308 3.301-8.71.2-1.402.5-2.703.9-3.904l7.203-23.426c.4-2.803 1-5.406 1.8-7.809.801-2.402 1.601-5.005 1.801-7.808 1.2-3.204 2.001-6.407 2.401-9.61.4-3.204.6-6.208.6-9.01 0-10.412-3-19.722-9.003-27.931-6.002-8.21-15.805-12.314-29.41-12.314-14.805 0-28.61 4.405-41.414 13.215-2.401 1.201-5.202 3.403-8.403 6.607-.8-8.009-2.601-14.716-5.402-20.122-2.801-5.406-7.403-9.11-13.805-11.112-4.402-1.602-9.403-2.403-15.005-2.403s-16.512 3.195-17.328 3.908c-1.513 1.32-1.88 11.409-3.08 18.016-1.2 6.607-3 14.416-5.402 23.426-2.4 9.01-5.101 18.92-8.102 29.732a1945.52 1945.52 0 0 0-8.703 32.436 7857.47 7857.47 0 0 1-1.95 7.142 3624.075 3624.075 0 0 1-9.855 19.287c-2.4 4.805-5.601 10.412-9.603 16.819-4.001 6.407-7.903 12.113-11.704 17.118-3.801 5.006-7.103 8.61-9.904 10.812-2.8 2.203-4.201 1.502-4.201-2.102 0-4.405 1.2-11.412 3.601-21.023l8.403-31.234c2.001-4.405 3.101-7.308 3.301-8.71.2-1.402.5-2.703.9-3.904l7.203-23.426c.4-2.803 1-5.406 1.8-7.809.801-2.402 1.601-5.005 1.802-7.808 1.2-3.204 2-6.407 2.4-9.61.4-3.204.6-6.208.6-9.01 0-10.412-3-19.722-9.003-27.931-6.002-8.21-15.805-12.314-29.41-12.314-14.805 0-28.61 4.405-41.414 13.215-2.401 1.201-5.202 3.403-8.403 6.607-.8-8.009-2.601-14.716-5.402-20.122-2.801-5.406-7.403-9.11-13.805-11.112-4.402-1.602-9.403-2.403-15.005-2.403s-17.377 3.726-18.228 4.875c-.853 1.152-.98 10.442-2.18 17.05-1.2 6.606-3 14.415-5.401 23.425-2.401 9.01-5.102 18.92-8.103 29.732a1945.511 1945.511 0 0 0-8.703 32.436 7618.442 7618.442 0 0 1-4.832 17.647 903.043 903.043 0 0 1-5.172 9.983 2687.071 2687.071 0 0 1-12.904 18.62c-4.202 6.008-8.103 11.113-11.705 15.318-3.6 4.204-6.502 7.007-8.703 8.409-2.2 1.402-3.3.7-3.3-2.102 0-3.604 1.2-10.211 3.6-19.822.4-1.201 1.201-4.305 2.401-9.31 1.2-5.006 2.801-11.012 4.802-18.02 2-7.008 4.001-14.516 6.002-22.525 2-8.009 4.002-15.617 6.002-22.825 2.001-7.208 3.702-13.615 5.102-19.221 1.4-5.606 2.5-9.21 3.301-10.812.8-3.203 1.4-6.107 1.8-8.71.401-2.602.601-5.506.601-8.71 0-7.607-1.6-14.115-4.802-19.52-3.2-5.407-8.803-9.711-16.806-12.915-2-.8-4.301-1.401-6.902-1.802-2.6-.4-5.102-.6-7.503-.6-5.602 0-16.941 3.898-17.797 4.86-1.17 1.317-1.372 9.793-2.01 13.46-.8 4.605-1.9 10.11-3.3 16.518a3861.858 3861.858 0 0 1-4.802 21.624 670.193 670.193 0 0 1-5.702 23.425c-3.202 8.01-7.303 16.819-12.305 26.43-5.001 9.61-9.903 19.02-14.705 28.23-3.601 6.007-7.602 12.014-12.004 18.02-4.402 6.007-8.403 11.213-12.004 15.617-3.602 4.405-6.703 7.409-9.304 9.01-2.6 1.602-3.9.801-3.9-2.402 0-5.206 1.4-11.813 4.2-19.822l23.409-77.485c4.401-14.016 7.402-24.527 9.003-31.535 1.6-7.008 2.4-12.714 2.4-17.119 0-6.006-1.3-11.012-3.9-15.016a38.903 38.903 0 0 0-9.604-10.211c-3.801-2.804-7.903-4.806-12.304-6.007-4.402-1.201-8.403-1.802-12.004-1.802-4.802 0-13.3 2.8-13.902 3.429-.266.279-.55 1.714-.891 3.906-.915 5.893-2.235 17.254-4.714 26.302-3.402 12.414-7.303 25.828-11.704 40.244a1083.29 1083.29 0 0 0-6.903 24.027 2222.24 2222.24 0 0 0-6.302 23.425c-2 7.609-3.601 14.616-4.802 21.023-1.2 6.408-1.8 11.813-1.8 16.218 0 11.613-1.115 19.4 7.802 33.938 8.918 14.538 15.006 19.921 29.41 26.729 6.403 2.803 11.765 5.447 18.607.9 6.842-4.545 25.91-26.728 30.51-33.536 4.603-6.807 8.704-13.615 12.305-20.422 1.2 9.21 5.502 23.125 10.904 31.734 5.402 8.61 14.505 15.718 27.31 21.324 7.202 3.203 13.158 4.003 21.307-.901 7.824-4.709 16.208-17.355 22.354-24.914.39 1.457.875 2.854 1.454 4.191 2.601 6.007 6.303 11.012 11.104 15.017 4.802 4.004 10.304 6.707 16.506 8.109 6.202 1.401 18.307.3 18.307.3s1.8-10.712 3-18.92c1.201-8.21 2.902-17.22 5.102-27.03 2.201-9.811 4.802-19.922 7.803-30.334a2108.572 2108.572 0 0 1 8.703-29.432c2-4.806 5.902-12.314 11.704-22.525 5.802-10.211 14.705-20.523 26.71-30.934 3.601-3.604 6.802-5.406 9.603-5.406 2 0 3.001 3.404 3.001 10.211 0 4.405-2.2 13.215-6.602 26.43 0 .8-.1 1.2-.3 1.2-.2 0-.5.401-.3 1.202a448.134 448.134 0 0 0-7.803 23.125c-2.401 7.809-4.402 15.317-6.002 22.525-.4 2.403-.7 5.106-.9 8.109-.2 3.003-.3 6.107-.3 9.31 0 11.613 2.5 22.925 7.502 33.938 5.002 11.012 14.905 19.921 29.71 26.729 7.203 3.203 14.305 3.003 21.308-.6 7.002-3.605 13.505-9.01 19.507-16.219a173.815 173.815 0 0 0 4.537-5.687c.117.297.238.591.364.882 2.601 6.007 6.303 11.012 11.104 15.017 4.802 4.004 10.304 6.707 16.506 8.109 6.202 1.401 12.304 1.501 18.307.3 1.2-7.141 2.2-13.448 3-18.92 1.201-8.21 2.902-17.22 5.102-27.03 2.201-9.811 4.802-19.922 7.803-30.334a2108.572 2108.572 0 0 1 8.703-29.432c2-4.806 5.902-12.314 11.704-22.525 5.802-10.211 14.705-20.523 26.71-30.934 3.6-3.604 6.802-5.406 9.603-5.406 2 0 3.001 3.404 3.001 10.211 0 4.405-2.2 13.215-6.602 26.43 0 .8-.1 1.2-.3 1.2-.2 0-.5.401-.3 1.202a448.134 448.134 0 0 0-7.803 23.125c-2.401 7.809-4.402 15.317-6.002 22.525-.4 2.403-.7 5.106-.9 8.109-.2 3.003-.3 6.107-.3 9.31 0 11.613 2.5 22.925 7.502 33.938 5.002 11.012 14.905 19.921 29.71 26.729 7.203 3.203 14.305 3.003 21.308-.6 7.002-3.605 13.505-9.01 19.507-16.219a179.336 179.336 0 0 0 13.557-18.629 67.861 67.861 0 0 0 2.748 6.616c4.602 9.61 14.105 17.82 28.51 24.627 4.802 2.003 9.604 2.703 14.405 2.103 4.802-.601 9.404-2.303 13.805-5.106 4.402-2.803 8.703-6.307 12.905-10.512a125.957 125.957 0 0 0 11.704-13.514v1.2c-.8 4.406-1.6 8.41-2.4 12.014-.801 3.604-1.802 6.808-3.002 9.61l-14.405 8.11c-6.002 3.003-11.404 5.906-16.206 8.71-17.206 8.809-31.61 16.818-43.215 24.026-11.604 7.208-21.007 16.017-28.21 26.429-6.402 9.61-9.603 21.023-9.603 34.237 0 10.011 2.1 19.522 6.302 28.532 4.202 9.01 10.904 15.316 20.107 18.92 6.803 2.803 14.005 4.205 21.608 4.205 8.003 0 15.905-1.602 23.708-4.805 7.803-3.204 15.205-7.308 22.208-12.314 7.002-5.005 13.304-10.611 18.906-16.818 5.602-6.207 10.404-12.514 14.406-18.921 8.002-14.016 16.105-31.034 24.308-51.056 5.469-13.348 12.971-33.97 22.508-61.868 22.008-16.018 41.915-34.438 59.72-55.26a249.193 249.193 0 0 0 3.954-4.74c-3.345 274.47-231.054 495.959-511.463 495.959-206.345 0-384.151-119.936-465.017-292.664v147.51l56.693 22.062c12.377 5.623 18.192 20.078 13.042 32.825-5.15 12.747-19.374 19.105-32.218 14.637l11.875-29.391-49.392-18.96v104.547a25.732 25.732 0 0 1 6.158-.743c13.748 0 24.971 10.807 25.64 24.389h-31.798l-19.483.005V872.717l-98.457-37.794-17.96-6.777 75.957-137.029C134.403 681.5 110.3 668.085 86.5 655.5c-29.44-15.567-58.273-6.274-86.5 27.88 19.969-148.432 78.118-228.4 174.448-239.905C204.022 193.795 420.205 0 682.5 0c269.343 0 490.063 204.351 510.029 463.722a219.952 219.952 0 0 1-10.622 15.298c-10.804 14.215-22.608 27.13-35.412 38.742 2.8-8.81 5.201-16.618 7.202-23.425a503.24 503.24 0 0 0 5.402-19.822 2816.79 2816.79 0 0 0 4.802-19.522c1.6-6.607 3.4-13.915 5.402-21.924 2-7.208 3-14.616 3-22.224 0-7.208-1.4-13.815-4.2-19.822-2.802-6.007-7.603-10.411-14.406-13.214-2.4-.801-5.002-1.402-7.803-1.802-2.8-.4-5.401-.601-7.802-.601-5.602 0-16.973 3.945-17.756 4.943-1.02 1.3-1.851 11.375-3.852 19.984-2 8.61-4.601 18.32-7.202 29.132-4.402 11.213-9.904 23.927-16.506 38.142-6.603 14.216-13.505 27.93-20.707 41.145a223.679 223.679 0 0 1-11.705 18.62c-4.201 6.008-8.202 11.113-12.004 15.318-3.801 4.204-6.902 7.108-9.303 8.71-2.4 1.601-3.601.8-3.601-2.403 0-4.806 1.2-11.413 3.6-19.822 8.004-26.43 14.206-47.252 18.607-62.469 4.402-15.217 7.703-26.83 9.904-34.838 2.2-8.009 3.501-13.315 3.901-15.918.4-2.602.6-4.905.6-6.907 0-7.208-1.3-13.815-3.9-19.822-2.602-6.007-7.704-10.411-15.306-13.214-2-.801-4.302-1.402-6.903-1.802-2.6-.4-5.101-.601-7.502-.601-5.602 0-17.129 3.564-17.989 4.574-1.03 1.211-1.818 9.141-3.019 14.947-1.2 5.807-2.9 12.814-5.101 21.024a3902.884 3902.884 0 0 0-6.903 26.128c-2.4 9.21-4.802 17.82-6.602 25.829l-2.401 7.208a346.656 346.656 0 0 0-6.345 21.233zM217.483 711.513v-7.017c40.883-1.004 144.677-11.881 195.66-110.935 52.5-102-35.706-187.053-66.278-213.74-29.796-26.009-66.044-86.87-8.12-130.09 8.821 17.771 27.396 30.015 48.883 30.015 5.794 0 11.378-.89 16.615-2.54 25.833 4.517 42.94 24.266 51.322 59.25 4.53 4.447 9.059-5.56 13.588-30.023 3.477-18.781-6.394-40.184-29.612-64.208a52.474 52.474 0 0 0 2.437-15.852c0-29.477-24.334-53.373-54.35-53.373-18.559 0-34.945 9.134-44.75 23.074-42.439 14.307-69.417 42.198-80.936 83.672-13.587 48.926 6.794 95.627 61.144 140.105 54.489 46.558 72.674 87.628 54.558 123.21-27.176 53.373-3.223-98.012-174-101-10.094-.176-19.825.295-29.196 1.414A498.15 498.15 0 0 0 171 502.088c0 74.748 16.64 145.681 46.483 209.425zM198 703.346c-7.18-1.123-14.551-2.98-22.069-5.397l-66.4 119.065L198 851.442V703.346zm813.447-16.197c-6.802 0-10.203-2.203-10.203-6.608 0-4.405 2.4-10.611 7.202-18.62 5.602-8.009 13.705-15.918 24.309-23.726 10.603-7.809 22.307-15.317 35.112-22.525-8.803 20.823-17.806 38.642-27.01 53.459-5.801 7.341-10.503 11.946-14.104 13.815-5.402 2.803-10.504 4.205-15.306 4.205zM534.18 629.96v9.24c0 1.467-.733 2.2-2.2 2.2h-35.86c-.587 0-.88.293-.88.88v137.28c0 1.467-.733 2.2-2.2 2.2h-11.22c-1.467 0-2.2-.733-2.2-2.2V642.28c0-.587-.293-.88-.88-.88H444.2c-1.467 0-2.2-.733-2.2-2.2v-9.24c0-1.467.733-2.2 2.2-2.2h87.78c1.467 0 2.2.733 2.2 2.2zm119.34 11.44h-66c-.587 0-.88.293-.88.88v54.56c0 .587.293.88.88.88h44.44c1.467 0 2.2.733 2.2 2.2v9.24c0 1.467-.733 2.2-2.2 2.2h-44.44c-.587 0-.88.293-.88.88v55c0 .587.293.88.88.88h66c1.467 0 2.2.733 2.2 2.2v9.24c0 1.467-.733 2.2-2.2 2.2h-80.3c-1.467 0-2.2-.733-2.2-2.2v-149.6c0-1.467.733-2.2 2.2-2.2h80.3c1.467 0 2.2.733 2.2 2.2v9.24c0 1.467-.733 2.2-2.2 2.2zm49.27 130.24c-8.14-7.92-12.21-18.407-12.21-31.46v-71.06c0-13.053 4.07-23.503 12.21-31.35 8.14-7.847 18.883-11.77 32.23-11.77 13.493 0 24.31 3.887 32.45 11.66 8.14 7.773 12.21 18.113 12.21 31.02v1.98c0 1.467-.733 2.2-2.2 2.2l-11.22.44c-1.467 0-2.2-.66-2.2-1.98v-3.08c0-8.507-2.677-15.4-8.03-20.68-5.353-5.28-12.357-7.92-21.01-7.92-8.653 0-15.62 2.603-20.9 7.81-5.28 5.207-7.92 12.137-7.92 20.79v73.04c0 8.653 2.64 15.583 7.92 20.79 5.28 5.207 12.247 7.81 20.9 7.81 8.653 0 15.657-2.64 21.01-7.92 5.353-5.28 8.03-12.173 8.03-20.68v-3.08c0-1.32.733-1.98 2.2-1.98l11.22.66c1.467 0 2.2.587 2.2 1.76v1.98c0 12.907-4.07 23.283-12.21 31.13-8.14 7.847-18.957 11.77-32.45 11.77-13.347 0-24.09-3.96-32.23-11.88zm191.83-143.88h11.22c1.467 0 2.2.733 2.2 2.2v149.6c0 1.467-.733 2.2-2.2 2.2h-11.22c-1.467 0-2.2-.733-2.2-2.2v-67.32c0-.587-.293-.88-.88-.88h-54.56c-.587 0-.88.293-.88.88v67.32c0 1.467-.733 2.2-2.2 2.2h-11.22c-1.467 0-2.2-.733-2.2-2.2v-149.6c0-1.467.733-2.2 2.2-2.2h11.22c1.467 0 2.2.733 2.2 2.2v66.88c0 .587.293.88.88.88h54.56c.587 0 .88-.293.88-.88v-66.88c0-1.467.733-2.2 2.2-2.2z" fill="url(#a)"/></g></svg>