<svg width="783" height="173" viewBox="0 0 783 173" xmlns="http://www.w3.org/2000/svg"><g fill="none" fill-rule="evenodd"><g fill="#4E4E4E"><text font-family="Helvetica" font-size="112.517" transform="translate(129 -30)"><tspan x=".602" y="110.516">DevFest</tspan></text><text font-family="Roboto-Regular, Roboto" font-size="98.592" transform="translate(129 -30)"><tspan x="4.989" y="201.834">Toulouse 2017</tspan></text></g><g fill-rule="nonzero"><path d="M22.853 169.22h19.103c4.52 0 10.138-3.174 12.467-7.064l16.09-26.776c1.904-3.927 1.836-9.638-.335-13.258l-9.502-15.73-37.823 62.827z" fill="#F4B400"/><path d="M43.385 91.903L.907 162.927c-1.643 3.51.064 6.292 4.278 6.292h17.668l37.823-62.827-17.289-28.616c2.332 3.877 2.332 10.234-.003 14.127" fill="#0F9D58"/><path d="M5.185.443c-4.54 0-6.34 3.187-4.006 7.063L70.178 122.12c2.171 3.623 2.236 9.33.335 13.258l16.773-27.919L22.864.443H5.185z" fill="#4285F4"/><path d="M22.864.443L87.29 107.461l9.342-15.555c2.334-3.896 2.334-10.253 0-14.13L54.423 7.506C52.093 3.63 46.476.443 41.956.443H22.864z" fill="#DB4437"/></g></g></svg>