<svg width="100%" height="100%" viewBox="0 0 26 43" xmlns="http://www.w3.org/2000/svg" fill-rule="evenodd" clip-rule="evenodd" stroke-linejoin="round" stroke-miterlimit="1.414"><g fill-opacity=".247" fill-rule="nonzero"><path d="M5.848 42.471h4.888c1.157 0 2.594-.797 3.19-1.773l4.118-6.72c.487-.986.47-2.419-.086-3.328l-2.431-3.948-9.679 15.769z" fill="#f4b400"/><path d="M11.102 23.066L.232 40.891c-.42.881.016 1.58 1.095 1.58h4.521l9.679-15.769-4.425-7.182c.597.973.597 2.569 0 3.546" fill="#0f9d58"/><path d="M1.327.111C.165.111-.296.911.302 1.884L17.958 30.65c.556.909.572 2.341.086 3.327l4.292-7.007L5.851.111H1.327z" fill="#4285f4"/><path d="M5.851.111l16.486 26.86 2.39-3.904c.598-.978.598-2.574 0-3.547L13.926 1.884C13.33.911 11.893.111 10.736.111H5.851z" fill="#db4437"/></g></svg>